<?xml version="1.0" encoding="UTF-8" standalone="no"?>
<!-- Created with Inkscape (http://www.inkscape.org/) -->

<svg
   width="21.695831mm"
   height="21.695831mm"
   viewBox="0 0 21.695831 21.695831"
   version="1.1"
   id="svg5"
   inkscape:version="1.2.2 (b0a8486541, 2022-12-01)"
   sodipodi:docname="drawing.svg"
   xml:space="preserve"
   xmlns:inkscape="http://www.inkscape.org/namespaces/inkscape"
   xmlns:sodipodi="http://sodipodi.sourceforge.net/DTD/sodipodi-0.dtd"
   xmlns="http://www.w3.org/2000/svg"
   xmlns:svg="http://www.w3.org/2000/svg"><sodipodi:namedview
     id="namedview7"
     pagecolor="#ffffff"
     bordercolor="#000000"
     borderopacity="0.25"
     inkscape:showpageshadow="2"
     inkscape:pageopacity="0.0"
     inkscape:pagecheckerboard="0"
     inkscape:deskcolor="#d1d1d1"
     inkscape:document-units="mm"
     showgrid="false"
     inkscape:zoom="1.0129245"
     inkscape:cx="73.549411"
     inkscape:cy="205.83963"
     inkscape:window-width="1920"
     inkscape:window-height="991"
     inkscape:window-x="-9"
     inkscape:window-y="-9"
     inkscape:window-maximized="1"
     inkscape:current-layer="text236" /><defs
     id="defs2" /><g
     inkscape:label="Layer 1"
     inkscape:groupmode="layer"
     id="layer1"
     transform="translate(-354.01246,-48.551047)"><rect
       style="fill:none;fill-opacity:1;stroke:none;stroke-width:0.593741;stroke-linecap:round;stroke-linejoin:miter;stroke-miterlimit:0;stroke-dasharray:none;stroke-opacity:1"
       id="rect19692"
       width="21.695831"
       height="21.695831"
       x="354.01248"
       y="48.551044"
       rx="0.12634096"
       ry="0.14862092"
       inkscape:export-filename="public\favicon.svg"
       inkscape:export-xdpi="37.463413"
       inkscape:export-ydpi="37.463413" /><g
       id="g19696"
       transform="translate(-0.32695432,0.42334148)"><path
         style="font-weight:bold;font-size:3.52777px;font-family:'Hidayatullah DEMO';-inkscape-font-specification:'Hidayatullah DEMO Bold';text-align:center;text-anchor:middle;fill:#3e8fed;fill-opacity:1;stroke:#ffffff;stroke-width:0;stroke-linecap:round;stroke-linejoin:round;stroke-miterlimit:0"
         d="m 362.63912,54.34881 0.95814,-2.26259 c 0.0164,-0.12301 -4.12562,-2.83832 -6.61462,0.60028 -0.99219,1.37073 -0.45351,3.0973 0.59503,3.95485 1.30074,1.06381 2.42221,0.74168 3.61847,1.39357 0.62231,0.33912 0.83822,1.99808 -1.50688,1.64493 -0.98281,-0.14801 -2.3251,-1.01282 -2.3251,-1.01282 l -1.03952,1.99626 c 0,0 3.08662,2.61457 6.45944,0.67655 1.59758,-0.91797 2.083,-3.40089 0.50149,-4.7977 -1.47608,-1.49093 -5.12791,-0.87605 -3.91807,-2.73529 0.6387,-0.69535 1.94266,-0.21556 3.27162,0.54196 z"
         id="path19688"
         sodipodi:nodetypes="ccssssccscccc" /><path
         style="font-weight:bold;font-size:3.52777px;font-family:'Hidayatullah DEMO';-inkscape-font-specification:'Hidayatullah DEMO Bold';text-align:center;text-anchor:middle;fill:#3e8fed;fill-opacity:1;stroke:#ffffff;stroke-width:0;stroke-linecap:round;stroke-linejoin:round;stroke-miterlimit:0"
         d="m 365.44944,56.42845 c 0,0 -0.34691,-0.0653 -0.36324,0.11019 -0.0163,0.17551 0.0163,2.22027 0.0163,2.22027 0,0 0.0531,0.0939 0.351,0.10203 0.29794,0.008 4.37931,-0.0327 4.37931,-0.0327 0,0 1.36827,-0.15145 1.56724,1.47746 0.20668,1.69202 -1.22441,1.89375 -1.33052,1.91824 -0.10612,0.0245 -4.83234,0.0163 -4.83234,0.0163 l -0.0408,4.75071 2.50596,0.008 0.0245,-2.63656 2.81614,0.0245 c 0,0 2.74268,-0.27754 3.36305,-2.78349 0.62037,-2.50596 -0.82376,-5.04793 -3.17146,-5.14376 -2.26259,-0.0923 -5.28513,-0.0314 -5.28513,-0.0314 z"
         id="path19690"
         sodipodi:nodetypes="cscccsscccccsscc"
         inkscape:export-filename="src\assets\logo.png"
         inkscape:export-xdpi="96"
         inkscape:export-ydpi="96" /></g></g></svg>
